Coordinates
version=1
nRows=10
nColumns=40
inDegrees=yes

Units are S.I. units (second, meters, Newtons, ...)
Angles are in degrees.

endheader
time	pelvis_tilt	pelvis_list	pelvis_rotation	pelvis_tx	pelvis_ty	pelvis_tz	hip_flexion_r	hip_adduction_r	hip_rotation_r	knee_angle_r	knee_angle_r_beta	ankle_angle_r	subtalar_angle_r	mtp_angle_r	hip_flexion_l	hip_adduction_l	hip_rotation_l	knee_angle_l	knee_angle_l_beta	ankle_angle_l	subtalar_angle_l	mtp_angle_l	lumbar_extension	lumbar_bending	lumbar_rotation	arm_flex_r	arm_add_r	arm_rot_r	elbow_flex_r	pro_sup_r	wrist_flex_r	wrist_dev_r	arm_flex_l	arm_add_l	arm_rot_l	elbow_flex_l	pro_sup_l	wrist_flex_l	wrist_dev_l
     51.17500000	     -5.38052464	     -3.99177674	     -3.77932989	      0.93248873	      0.92249588	      0.42662725	     31.70485586	     -2.99213675	    -11.19031746	     22.44533299	     22.44533299	      3.46659812	     -2.10742617	      3.35292439	      5.01182785	     -5.59581239	    -10.25340861	     17.63974461	     17.63974461	     18.82495557	     -7.55826144	     -3.47448912	    -11.13862524	      3.57837134	      4.01918399	     -9.35867451	    -12.88360547	     -7.57402594	     22.32878274	     47.30484501	      0.00000000	      0.00000000	     26.81226587	    -21.71644442	      3.67702192	     82.88532530	     47.04583691	      0.00000000	      0.00000000
     51.18621429	     -5.32288032	     -3.68513959	     -3.82076346	      0.93406219	      0.92079074	      0.42847187	     30.89313671	     -3.00065836	    -12.30203730	     20.38940834	     20.38940834	      3.99729545	      0.40174197	      5.34186871	      3.99274845	     -5.31599662	    -10.59310106	     17.11528498	     17.11528498	     19.21001018	     -7.04031155	     -3.86636358	    -11.04663004	      3.20728202	      3.70230138	    -10.85722411	    -12.94257500	     -7.71321673	     23.28179027	     47.23379766	      0.00000000	      0.00000000	     26.24110982	    -22.43863185	      2.83958868	     87.46727056	     47.21593414	      0.00000000	      0.00000000
     51.19742857	     -5.32573595	     -3.60284057	     -3.82609876	      0.93568024	      0.91909956	      0.43053048	     30.10688436	     -2.69245304	    -13.03037426	     18.66131328	     18.66131328	      4.05061250	      1.84488576	      6.81090601	      3.12196951	     -5.29110272	    -10.68535660	     16.76826494	     16.76826494	     19.70309057	     -6.79444307	     -3.85174222	    -10.83693187	      3.14893972	      3.52130775	    -12.30815099	    -13.05147059	     -7.42515430	     23.89007343	     47.13601127	      0.00000000	      0.00000000	     25.97231431	    -22.68933898	      1.79279245	     90.46665309	     47.38542665	      0.00000000	      0.00000000
     51.20864286	     -5.33528662	     -3.53785316	     -3.78612926	      0.93729005	      0.91739096	      0.43265895	     29.41517109	     -2.39356356	    -13.48836713	     17.44625805	     17.44625805	      3.70149107	      2.60298892	      7.11675919	      2.33570860	     -5.29746046	    -10.67460031	     16.55326357	     16.55326357	     20.17365877	     -6.68173537	     -3.81966894	    -10.55832346	      3.09267117	      3.75075934	    -13.59565132	    -13.02105918	     -7.30053416	     23.71303053	     47.11179652	      0.00000000	      0.00000000	     26.37728603	    -22.48640745	      1.50957619	     92.21956664	     47.45113280	      0.00000000	      0.00000000
     51.21985714	     -5.32052708	     -3.50371453	     -3.73780665	      0.93896229	      0.91577380	      0.43487750	     28.90495971	     -2.17490422	    -13.88662884	     17.00045905	     17.00045905	      3.34391845	      3.13906456	      6.83487179	      1.58147367	     -5.36162519	    -10.66856288	     16.45830710	     16.45830710	     20.68391093	     -6.52619759	     -3.61610797	    -10.36755698	      3.07940848	      4.01135583	    -14.93160148	    -12.95798851	     -7.20177810	     23.87792240	     47.07190803	      0.00000000	      0.00000000	     26.49892334	    -22.33303495	      1.14412577	     94.58810779	     47.53424751	      0.00000000	      0.00000000
     51.23107143	     -5.37426581	     -3.51185420	     -3.60703900	      0.94054132	      0.91417648	      0.43707647	     28.65811905	     -2.00167122	    -14.01825971	     17.20259903	     17.20259903	      3.18511629	      3.06587071	      6.65927942	      1.03436433	     -5.50244435	    -10.51399362	     16.55809733	     16.55809733	     21.05614675	     -6.55285746	     -3.63235194	     -9.99379899	      3.17838957	      3.85588918	    -15.90107496	    -12.92066481	     -7.19865606	     23.69986532	     47.06733722	      0.00000000	      0.00000000	     26.68018245	    -22.51568748	      0.89387089	     95.25274874	     47.56670814	      0.00000000	      0.00000000
     51.24228571	     -5.32311458	     -3.60978984	     -3.58798571	      0.94195226	      0.91276490	      0.43960019	     28.48630988	     -1.74676475	    -13.91264052	     17.93320186	     17.93320186	      2.78068581	      2.55180289	      5.23435918	      0.62273122	     -5.80821478	    -10.41746446	     17.19620047	     17.19620047	     21.65990326	     -6.72758857	     -3.19444813	    -10.01728670	      3.25267809	      4.34816800	    -17.01584174	    -12.78868453	     -7.14276099	     24.25785433	     47.01531036	      0.00000000	      0.00000000	     26.43690908	    -21.93931668	      0.37072122	     98.59931267	     47.67665604	      0.00000000	      0.00000000
     51.25350000	     -5.31186087	     -3.71471628	     -3.41155925	      0.94344075	      0.91163042	      0.44209340	     28.03555635	     -1.43578515	    -13.62780149	     18.08566317	     18.08566317	      0.68008823	      1.12766207	     -1.03429166	      0.42050860	     -6.20915761	    -10.35821322	     18.16752309	     18.16752309	     22.92010868	     -6.24306594	     -1.15666596	     -9.91544205	      3.41226062	      3.21326506	    -17.76713568	    -13.12578671	     -5.74677943	     26.38930922	     46.74271056	      0.00000000	      0.00000000	     24.73666514	    -22.44726291	     -2.09340460	    101.90142034	     47.97803914	      0.00000000	      0.00000000
     51.26471429	     -5.30301935	     -3.91255080	     -3.27420654	      0.94455240	      0.91080627	      0.44469959	     27.98501430	     -1.13656115	    -13.21311769	     19.21367574	     19.21367574	      0.81493319	     -0.04989244	     -1.65972153	      0.40488753	     -6.69725716	     -9.99758345	     19.34053023	     19.34053023	     23.06741192	     -6.81522352	     -1.27038421	     -9.82882292	      3.65161640	      3.48376102	    -18.34430863	    -12.97361302	     -5.48094311	     26.27629099	     46.71279321	      0.00000000	      0.00000000	     24.55842161	    -22.09396219	     -2.18511307	    103.24518240	     48.02509043	      0.00000000	      0.00000000
     51.27592857	     -5.21889898	     -4.16858170	     -3.12322969	      0.94551730	      0.91038299	      0.44741517	     27.84261577	     -0.80622469	    -12.89650013	     20.37776903	     20.37776903	      1.13759753	     -1.08297473	     -2.22678169	      0.53830884	     -7.29862723	     -9.60448862	     20.91068217	     20.91068217	     23.08332717	     -7.52518445	     -1.47873284	     -9.87906672	      3.93890892	      3.67450054	    -18.62448039	    -12.85414934	     -5.35486230	     26.27668902	     46.69511564	      0.00000000	      0.00000000	     24.32464550	    -21.76101037	     -2.47880818	    104.38742936	     48.07476730	      0.00000000	      0.00000000
